<?xml version="1.0"?>
<svg fill="#ffffff" data-name="레이어 1" id="레이어_1" viewBox="0 0 40 40" xmlns="http://www.w3.org/2000/svg">
	<path d="M19.37,32.71h0l-10.62,0V18.28H26.53v1.79a.9.9,0,0,0,1.8,0V17.38a.9.9,0,0,0-.9-.9H7.85a.9.9,0,0,0-.9.9V32.75H5.21a1.35,1.35,0,0,1-1-.41,1.55,1.55,0,0,1-.46-1.13V16a1.55,1.55,0,0,1,.64-1.28L16.59,6.14a1.32,1.32,0,0,1,1.52,0l12.1,8.3a1.58,1.58,0,0,1,.66,1.31l0,4.33a.89.89,0,0,0,.89.9.87.87,0,0,0,.91-.89l0-4.33A3.34,3.34,0,0,0,31.23,13L19.12,4.65a3.1,3.1,0,0,0-3.57,0L3.41,13.24A3.4,3.4,0,0,0,2,16V31.22a3.37,3.37,0,0,0,1,2.41,3.13,3.13,0,0,0,2.22.93H7.9l11.48,0a.9.9,0,0,0,0-1.8Z" />
	<path d="M37.1,27.81H34.23V22.42a.9.9,0,0,0-.9-.9H25.79a.9.9,0,0,0-.9.9v5.39H22a.9.9,0,0,0-.9.9V35a.9.9,0,0,0,.9.9H37.1A.9.9,0,0,0,38,35v-6.3A.9.9,0,0,0,37.1,27.81ZM26.69,23.32h5.74v4.49H26.69Zm-3.77,6.29h5.74v4.5H22.92Zm13.28,4.5H30.46v-4.5H36.2Z" />
</svg>
