<svg xmlns="http://www.w3.org/2000/svg" xmlns:xlink="http://www.w3.org/1999/xlink" version="1.1" width="256" height="256" viewBox="0 0 256 256" xml:space="preserve">
<desc>Created with Fabric.js 1.7.22</desc>
<defs>
</defs>
<g transform="translate(128 128) scale(0.72 0.72)" style="">
	<g style="stroke: none; stroke-width: 0; stroke-dasharray: none; stroke-linecap: butt; stroke-linejoin: miter; stroke-miterlimit: 10; fill: none; fill-rule: nonzero; opacity: 1;" transform="translate(-175.05 -175.05000000000004) scale(3.89 3.89)" >
	<path d="M 45 90 C 20.187 90 0 69.813 0 45 C 0 20.187 20.187 0 45 0 c 24.813 0 45 20.187 45 45 C 90 69.813 69.813 90 45 90 z M 45 4 C 22.393 4 4 22.393 4 45 s 18.393 41 41 41 s 41 -18.393 41 -41 S 67.607 4 45 4 z" style="stroke: none; stroke-width: 1; stroke-dasharray: none; stroke-linecap: butt; stroke-linejoin: miter; stroke-miterlimit: 10; fill: #ffffff; fill-rule: nonzero; opacity: 1;" transform=" matrix(1 0 0 1 0 0) " stroke-linecap="round" />
	<path d="M 45 52.001 c -9 0 -16.322 -7.322 -16.322 -16.322 S 36 19.357 45 19.357 s 16.321 7.322 16.321 16.322 S 54 52.001 45 52.001 z M 45 23.357 c -6.794 0 -12.322 5.527 -12.322 12.322 S 38.206 48.001 45 48.001 c 6.794 0 12.321 -5.527 12.321 -12.322 S 51.794 23.357 45 23.357 z" style="stroke: none; stroke-width: 1; stroke-dasharray: none; stroke-linecap: butt; stroke-linejoin: miter; stroke-miterlimit: 10; fill: #ffffff; fill-rule: nonzero; opacity: 1;" transform=" matrix(1 0 0 1 0 0) " stroke-linecap="round" />
	<path d="M 45 90 c -7.531 0 -14.987 -1.9 -21.561 -5.495 l -1.041 -0.569 V 70.603 c 0 -12.463 10.139 -22.602 22.602 -22.602 c 12.463 0 22.602 10.139 22.602 22.602 v 13.333 l -1.04 0.569 C 59.987 88.1 52.531 90 45 90 z M 26.398 81.545 C 32.126 84.463 38.532 86 45 86 s 12.874 -1.537 18.602 -4.455 V 70.603 c 0 -10.257 -8.345 -18.602 -18.602 -18.602 s -18.602 8.345 -18.602 18.602 V 81.545 z" style="stroke: none; stroke-width: 1; stroke-dasharray: none; stroke-linecap: butt; stroke-linejoin: miter; stroke-miterlimit: 10; fill: #ffffff; fill-rule: nonzero; opacity: 1;" transform=" matrix(1 0 0 1 0 0) " stroke-linecap="round" />
</g>
</g>
</svg>